<svg xmlns="http://www.w3.org/2000/svg" width="95.878" height="69.651" viewBox="0 0 95.878 69.651">
  <g id="logo" transform="translate(-0.002 0)">
    <g id="グループ_6" data-name="グループ 6">
      <path id="パス_34" data-name="パス 34" d="M45.35,48.72h2.23a5.843,5.843,0,0,0,2.7-.58,4.183,4.183,0,0,0,1.75-1.63,4.777,4.777,0,0,0,.61-2.46,4.926,4.926,0,0,0-.6-2.46,4.148,4.148,0,0,0-1.72-1.65,5.474,5.474,0,0,0-2.64-.59H42.06v13.6h3.29V48.72ZM46.97,42a2.713,2.713,0,0,1,1.24.25,1.747,1.747,0,0,1,.76.71,2.2,2.2,0,0,1,.26,1.09,2.224,2.224,0,0,1-.26,1.09,1.847,1.847,0,0,1-.76.73,2.71,2.71,0,0,1-1.24.26H45.35V42Z" fill="#ff6400"/>
      <rect id="長方形_1" data-name="長方形 1" width="3.29" height="13.6" transform="translate(54.63 39.35)" fill="#ff6400"/>
      <path id="パス_35" data-name="パス 35" d="M72.95,52.94l-4.23-6.79,4.1-6.8H69.14l-2.51,4.29h-.1l-2.49-4.29h-3.7l4.11,6.8-4.22,6.79h3.75l2.55-4.34h.1l2.55,4.34Z" fill="#ff6400"/>
      <path id="パス_36" data-name="パス 36" d="M84.38,50.28H78.19v-2.8H83.9V44.8H78.19V42.02h6.19V39.35H74.9V52.94h9.48Z" fill="#ff6400"/>
      <path id="パス_37" data-name="パス 37" d="M95.76,50.28H90.1V39.35H86.81V52.94h8.95Z" fill="#ff6400"/>
      <path id="パス_38" data-name="パス 38" d="M48.09,63.48h3.58a4.327,4.327,0,0,1-.5,2.06,3.52,3.52,0,0,1-1.39,1.42,4.188,4.188,0,0,1-2.06.5,4.273,4.273,0,0,1-2.27-.62A4.325,4.325,0,0,1,43.85,65a7.883,7.883,0,0,1-.01-5.96,4.333,4.333,0,0,1,1.57-1.84,4,4,0,0,1,2.2-.62,4.446,4.446,0,0,1,1.35.2,3.64,3.64,0,0,1,1.95,1.49,4.742,4.742,0,0,1,.57,1.2h1.7a5.21,5.21,0,0,0-.68-1.8,5.471,5.471,0,0,0-1.22-1.4,5.614,5.614,0,0,0-1.67-.91,6.227,6.227,0,0,0-2.01-.32,5.913,5.913,0,0,0-2.4.48,5.489,5.489,0,0,0-1.89,1.39,6.445,6.445,0,0,0-1.23,2.2,9.062,9.062,0,0,0-.43,2.9,8.431,8.431,0,0,0,.76,3.72,5.763,5.763,0,0,0,2.12,2.42A5.851,5.851,0,0,0,47.7,69a5.938,5.938,0,0,0,2.87-.68,4.981,4.981,0,0,0,1.97-1.92,5.718,5.718,0,0,0,.71-2.92V62.02H48.07v1.46Z" fill="#ff6400"/>
      <path id="パス_39" data-name="パス 39" d="M63.3,62.98a3.442,3.442,0,0,0,1.51-1.46,4.9,4.9,0,0,0,0-4.27,3.484,3.484,0,0,0-1.51-1.48,5.571,5.571,0,0,0-2.62-.54H56.09v13.6h1.65V63.52h2.97c.12,0,.23,0,.35-.01l2.87,5.32h1.91l-3.07-5.61C62.95,63.14,63.13,63.07,63.3,62.98Zm-5.57-6.3h2.89a3.874,3.874,0,0,1,1.77.34,2.1,2.1,0,0,1,.98.95,3.205,3.205,0,0,1,.31,1.43,3.015,3.015,0,0,1-.3,1.4,2.051,2.051,0,0,1-.97.91,4.132,4.132,0,0,1-1.76.32H57.73V56.68Z" fill="#ff6400"/>
      <path id="パス_40" data-name="パス 40" d="M73.17,55.22l-4.99,13.6h1.73l1.37-3.85h5.5l1.37,3.85h1.73l-4.99-13.6Zm-1.38,8.29,2.18-6.13h.11l2.18,6.13Z" fill="#ff6400"/>
      <path id="パス_41" data-name="パス 41" d="M93.91,55.22,89.29,66.51h-.16L84.51,55.22H82.55v13.6h1.54V58.49h.13l4.25,10.33h1.49l4.25-10.33h.13V68.82h1.54V55.22Z" fill="#ff6400"/>
    </g>
    <path id="パス_42" data-name="パス 42" d="M26.38,55.09h0c-6.46,1.45-11.76,8.72-15.23,9.81,5.92,4.41,18.84,5.79,23.78,3.97C30.33,63.52,27.53,58.99,26.38,55.09Z" fill="#ffd1b3"/>
    <g id="グループ_7" data-name="グループ 7">
      <path id="パス_43" data-name="パス 43" d="M26.38,55.09h0a.983.983,0,0,1,.05.16c-.02-.05-.03-.11-.05-.16-2.86-.23-7.17-5.86-12.49-8.65,1.28.73,1.98,1.58,1.34,2.56-1.95,3.03-9.46,5.68-6.79,12.62a7.647,7.647,0,0,0,2.71,3.28C14.62,63.81,19.92,56.54,26.38,55.09Z" fill="#ffa266"/>
    </g>
    <g id="グループ_8" data-name="グループ 8">
      <path id="パス_44" data-name="パス 44" d="M13.89,46.44c5.31,2.79,9.63,8.43,12.49,8.65h0c-.01-.05-.03-.09-.04-.14-1.88-6.54.94-11.25,7.79-14.93,0,0-1.67-3.33-4.43-3.33a3.055,3.055,0,0,0-.72.08,3.392,3.392,0,0,1-.7.07c-2.86,0-5.19-3.55-7.89-3.82-.33-.03-.64-.05-.94-.05-2.34,0-3.84,1.01-6.27,3.05a3.9,3.9,0,0,1-2.58.77c-2.51,0-5.6-1.3-7.02-1.3a.935.935,0,0,0-.65.18c-1.07,1.01.56,6.54,2.12,7.56,1.06.7,6.2,1.7,8.84,3.21Z" fill="#ff6400"/>
    </g>
    <g id="グループ_9" data-name="グループ 9">
      <path id="パス_45" data-name="パス 45" d="M3.63,26.89c5.77,3.69,7.95,3.04,11.66,4.37a3.874,3.874,0,0,1,.55.25,8.473,8.473,0,0,1,2.28-.66,8.635,8.635,0,0,1-1.87-3.79,6.914,6.914,0,0,1,.42-3.93.339.339,0,0,0-.55-.37A4.219,4.219,0,0,0,14.9,26.2c.23,3.13-1.85,2.89-3.63.39-4.73-6.64-2.46-9.27-1.61-12.14a12.609,12.609,0,0,1,1.52-3.38.275.275,0,0,0-.37-.39,4.074,4.074,0,0,0-1.67,2.06c-.86,2.17-1.01,4.3-2.29,3.85S4.88,13.35,5.18,10.3a8.68,8.68,0,0,1,.8-3.14.259.259,0,0,0-.39-.32,8.89,8.89,0,0,0-3.28,5.61c-.61,4.35,5.08,9.86,4.8,11.84s-3.87.29-5-1.21A10.245,10.245,0,0,1,.79,18.95a.216.216,0,0,0-.42-.04C-.16,20.46-.77,24.07,3.63,26.89Z" fill="#ff6400"/>
    </g>
    <g id="グループ_10" data-name="グループ 10">
      <path id="パス_46" data-name="パス 46" d="M68.15,10.64A14.532,14.532,0,0,0,66.91.26a.476.476,0,0,0-.9.23,15.3,15.3,0,0,1-.79,5.05c-1.52,4.81-4.35,8.58-6.58,8.44s-1.08-3.46-.98-7.3A6.8,6.8,0,0,0,56.47,2.5a.462.462,0,0,0-.83.35,21.263,21.263,0,0,1,.11,6.08c-.57,4.89,1.16,10.33-10.27,17.32-4.3,2.63-7.6,1.64-5.24-2.94a6.927,6.927,0,0,0,.14-6.49.447.447,0,0,0-.85.2,11.757,11.757,0,0,1-1.91,6.72c-2.56,3.62-5.56,4.63-8.19,5.96a30.176,30.176,0,0,0-4.75,2.89c.24.17.47.33.69.5,1.04.75,2.12,1.53,2.9,1.53a1.134,1.134,0,0,0,.25-.03l.19-.03c1.95-2.09,4.6-4.02,7.65-3.84,6.48.38,9.36,2.78,20.46.92,8.14-1.37,9.77-6.83,10.06-9.64a.433.433,0,0,0-.8-.27c-.99,1.6-2.73,4.1-4.49,5.12-2.69,1.55-9.2,1.78-8.34-1.39S66.27,17.62,68.15,10.64Z" fill="#ff6400"/>
    </g>
  </g>
</svg>
