<svg xmlns="http://www.w3.org/2000/svg" xmlns:xlink="http://www.w3.org/1999/xlink" width="96" height="74" viewBox="0 0 96 74">
  <defs>
    <clipPath id="clip-path">
      <rect id="crop" width="96" height="74" transform="translate(0 0)" fill="none"/>
    </clipPath>
  </defs>
  <g id="logo_og" transform="translate(0 0)" clip-path="url(#clip-path)">
    <g id="レイヤー_1" data-name="レイヤー 1">
      <path id="パス_22" data-name="パス 22" d="M28.821,69.033a18.273,18.273,0,0,0,5.812-.755c-4.608-5.221-7.4-9.644-8.516-13.432-1.86-6.314.933-10.865,7.728-14.413,0,0-1.657-3.211-4.394-3.211a3.612,3.612,0,0,0-.717.073,3.5,3.5,0,0,1-.693.069c-2.839,0-5.151-3.426-7.82-3.684-.326-.032-.635-.047-.93-.047-2.318,0-3.81.973-6.214,2.942a3.948,3.948,0,0,1-2.558.748c-2.491,0-5.548-1.254-6.965-1.254a.935.935,0,0,0-.64.175c-1.057.977.554,6.32,2.1,7.3S17.035,46.173,15.105,49.1s-9.38,5.483-6.737,12.183C10.389,66.4,21.185,69.033,28.821,69.033Z" fill="#ff6400"/>
      <path id="パス_23" data-name="パス 23" d="M34.633,68.278c-4.556-5.162-7.334-9.543-8.475-13.3-2.833-.217-7.114-5.661-12.383-8.355,1.269.7,1.959,1.522,1.33,2.476-1.93,2.923-9.38,5.483-6.737,12.183S28.674,70.419,34.633,68.278Z" fill="#ffa266"/>
      <text id="PIXEL" transform="translate(40.689 52.902)" fill="#ff6400" font-size="18" font-family="Inter-ExtraBold, Inter" font-weight="800" letter-spacing="0.02em"><tspan x="0" y="0">PIXEL</tspan></text>
      <text id="GRAM" transform="translate(40.21 68.231)" fill="#ff6400" font-size="18" font-family="Inter-Regular, Inter"><tspan x="0" y="0">GRAM</tspan></text>
      <path id="パス_24" data-name="パス 24" d="M26.159,54.978l0,0c-6.4,1.4-11.66,8.423-15.1,9.471,5.87,4.255,18.679,5.592,23.578,3.832C30.078,63.117,27.3,58.737,26.159,54.978Z" fill="#ffd1b3"/>
    </g>
    <g id="marutuno">
      <g id="グループ_2" data-name="グループ 2">
        <path id="パス_25" data-name="パス 25" d="M19.276,39.255s2.316-.331,2.5-1.605c.157-1.085-.961-2.722-2-4-.165-.009-.326-.014-.482-.014a6.667,6.667,0,0,0-1.781.23A12.5,12.5,0,0,1,19.276,39.255Z" fill="#ff6400"/>
        <path id="パス_26" data-name="パス 26" d="M3.6,27.748c5.718,3.566,7.882,2.936,11.564,4.221a4.125,4.125,0,0,1,.544.239,8.537,8.537,0,0,1,2.264-.638,8.263,8.263,0,0,1-1.855-3.661,6.573,6.573,0,0,1,.417-3.792.337.337,0,0,0-.549-.362,4.018,4.018,0,0,0-1.215,3.32c.23,3.02-1.835,2.793-3.6.381-4.686-6.409-2.438-8.949-1.6-11.72a12.146,12.146,0,0,1,1.5-3.267.272.272,0,0,0-.371-.379,3.989,3.989,0,0,0-1.659,1.987c-.852,2.094-1,4.15-2.272,3.715s-1.949-3.126-1.655-6.073a8.624,8.624,0,0,1,.813-3.029.253.253,0,0,0-.388-.3A8.551,8.551,0,0,0,2.286,13.8C1.677,18,7.32,23.318,7.043,25.229s-3.832.281-4.956-1.173A9.652,9.652,0,0,1,.782,20.072a.216.216,0,0,0-.415-.039C-.162,21.534-.764,25.026,3.6,27.748Z" fill="#ff6400"/>
      </g>
      <g id="グループ_3" data-name="グループ 3">
        <path id="パス_27" data-name="パス 27" d="M22.29,35.881c-.565,2.043,2.718,4,2.718,4a22.557,22.557,0,0,1,1.776-2.731,18.522,18.522,0,0,1-3.915-2.358A3.265,3.265,0,0,0,22.29,35.881Z" fill="#ff6400"/>
        <path id="パス_28" data-name="パス 28" d="M67.581,12.053A13.733,13.733,0,0,0,66.35,2.03a.475.475,0,0,0-.894.221,14.38,14.38,0,0,1-.787,4.875c-1.51,4.643-4.318,8.288-6.529,8.146s-1.074-3.345-.975-7.048a6.4,6.4,0,0,0-1.179-4.032.458.458,0,0,0-.822.339,19.713,19.713,0,0,1,.108,5.87c-.565,4.719,1.152,9.974-10.185,16.724-4.267,2.54-7.54,1.585-5.191-2.837a6.543,6.543,0,0,0,.142-6.262.445.445,0,0,0-.842.192,11.109,11.109,0,0,1-1.89,6.486c-2.542,3.5-5.511,4.469-8.118,5.757a29.834,29.834,0,0,0-4.712,2.792c.234.16.464.321.688.478a6.569,6.569,0,0,0,2.876,1.477,1.217,1.217,0,0,0,.243-.024c.062-.013.125-.023.187-.033,1.932-2.018,4.559-3.88,7.584-3.706,6.422.371,9.277,2.684,20.29.884,8.071-1.319,9.687-6.591,9.974-9.313a.429.429,0,0,0-.791-.26c-.98,1.547-2.7,3.961-4.448,4.939-2.663,1.492-9.122,1.723-8.274-1.341S65.716,18.793,67.581,12.053Z" fill="#ff6400"/>
      </g>
    </g>
  </g>
</svg>
