<svg xmlns="http://www.w3.org/2000/svg" width="426" height="314" viewBox="0 0 426 314">
  <g id="mv" transform="translate(-508 -158)">
    <g id="tit">
      <g id="logo_b" transform="translate(363.59 -188.946)">
        <g id="グループ_1" data-name="グループ 1">
          <path id="パス_2" data-name="パス 2" d="M498.4,644.7v-1.983h-1.985v-1.983h-1.987v-1.983h-1.991v-1.99h-1.989v-1.983h-1.992V632.8h-1.989v-1.978h-1.987v-1.992h-1.991v23.8h1.991V650.65h1.987v-1.985h1.989v1.985h1.992v3.963h1.989v3.966h3.978v-3.966h-1.987V650.65h-1.991v-3.975h7.955V644.7Z" fill="#1a1311"/>
          <path id="パス_3" data-name="パス 3" d="M268.442,355.73l-6.386-.544-3.269,22.655L244.176,376.6l3.377-22.647-6.385-.546-3.485,22.639-12.876-1.1,0,6.586,12.012,1.027L234.633,397.4l-12.767-1.088,0,6.586,11.8,1.006-3.7,24.486,6.277.536,3.7-24.487,14.722,1.255-3.378,24.517,6.387.544,3.374-24.515,11.9,1.013.006-6.586-10.93-.93,2.177-14.849,11.581.988,0-6.587-10.712-.913ZM255.63,399.193,240.8,397.929,243.2,383.1l14.609,1.246Z" fill="#1a1311"/>
          <path id="パス_4" data-name="パス 4" d="M293.775,441.67l7.762.664.081-94.723-7.764-.664Z" fill="#1a1311"/>
          <path id="パス_5" data-name="パス 5" d="M347.394,378.411c-19.278-1.644-29,14.585-29.013,32.426-.012,17.974,9.03,35.671,28.434,37.327,15.657,1.335,25.368-5.055,29.391-20.455l-8.15-.694c-1.95,8.887-9.589,14.924-18.772,14.141-15.913-1.356-22.245-13.705-22.494-27.766l50.2,4.282C377.008,397.074,369.131,380.266,347.394,378.411Zm.124,7.226c13.453,1.149,20.175,11.3,21.068,24.1L327.054,406.2C328.1,394.742,334.837,384.555,347.518,385.638Z" fill="#1a1311"/>
          <path id="パス_6" data-name="パス 6" d="M439.234,408.024c.27-15.064-8.649-22.517-23.009-23.742-12.421-1.058-22.39,3.206-24.345,16.556l8.282.705c1.045-8.833,7.774-10.751,15.923-10.055,9.189.784,14.62,4.657,15.385,15.483l0,6.035c-9.444-.281-20.7-2.551-29.369.512-7.767,2.616-13.077,8.985-13.086,17.906-.011,12.859,9.56,21.157,21.592,22.183,8.8.749,17.471-3.76,20.321-9.026l.39-.888.257.023.252,9.728,8.021.686c-.255-4.481-.768-9.775-.635-14.881Zm-27.2,38.485c-7.893-.674-14.619-5.442-14.613-14.366.017-16.529,23.045-12.464,34.039-11.924C432.225,434.062,428.982,447.952,412.032,446.508Z" fill="#1a1311"/>
          <path id="パス_7" data-name="パス 7" d="M477.755,446.475,455.42,389.593l-8.539-.729,26.468,68.123,8.8.749,25.8-63.664-8.538-.729Z" fill="#1a1311"/>
          <path id="パス_8" data-name="パス 8" d="M540.812,394.909c-19.278-1.643-28.995,14.585-29.012,32.427-.014,17.973,9.031,35.672,28.432,37.327,15.657,1.336,25.366-5.055,29.391-20.456l-8.149-.694c-1.95,8.884-9.592,14.925-18.778,14.141-15.911-1.355-22.24-13.7-22.489-27.765l50.2,4.282C570.431,413.573,562.548,396.764,540.812,394.909Zm.122,7.226c13.454,1.147,20.175,11.3,21.068,24.1L520.475,422.7C521.518,411.239,528.258,401.054,540.935,402.135Z" fill="#1a1311"/>
          <path id="パス_9" data-name="パス 9" d="M169.5,526.062l35.583,3.033,0-7.347L169.5,518.713Z" fill="#1a1311"/>
          <path id="パス_10" data-name="パス 10" d="M259.538,487.381c.27-15.062-8.653-22.518-23.012-23.742-12.42-1.058-22.389,3.211-24.338,16.555l8.28.709c1.042-8.836,7.773-10.754,15.922-10.059,9.187.784,14.617,4.658,15.387,15.484l0,6.035c-9.447-.279-20.7-2.552-29.374.512-7.764,2.617-13.074,8.987-13.082,17.906-.011,12.861,9.556,21.154,21.587,22.181,8.8.751,17.472-3.758,20.323-9.026l.389-.887.262.022.246,9.732,8.024.685c-.257-4.482-.767-9.776-.634-14.881Zm-27.206,38.487c-7.892-.672-14.616-5.446-14.611-14.369.017-16.529,23.045-12.465,34.043-11.922C252.527,513.419,249.28,527.315,232.332,525.868Z" fill="#1a1311"/>
          <path id="パス_11" data-name="パス 11" d="M267.8,534.445l35.583,3.035.007-7.349L267.81,527.1Z" fill="#1a1311"/>
          <path id="パス_12" data-name="パス 12" d="M386.3,476.416c-10.092-.862-17.6,5.191-22.4,12.525-2.835-8.9-10.854-15.362-21.073-16.235-8.4-.716-15.782,2.459-20.319,10.21l-.259-.285-.379-9.744-8.021-.685c.257,4.485.639,9.764.634,14.881l-.042,51.037,7.762.664.031-37.918c.011-11.809,5.843-22.2,18.652-21.109,10.606.9,17.066,8.148,17.056,19.566l-.035,42.5,7.764.664.031-37.918c.011-11.808,5.84-22.2,18.647-21.109,10.613.906,17.073,8.149,17.065,19.565l-.037,42.507,7.764.662.034-41.2C409.18,497.391,407.517,478.223,386.3,476.416Z" fill="#1a1311"/>
          <path id="パス_13" data-name="パス 13" d="M451.888,482.009c-19.275-1.644-28.995,14.585-29.008,32.427-.016,17.974,9.024,35.672,28.432,37.326,15.657,1.335,25.365-5.051,29.39-20.455l-8.149-.694c-1.95,8.888-9.591,14.928-18.778,14.143-15.911-1.356-22.241-13.7-22.488-27.769l50.2,4.281C481.5,500.672,473.624,483.864,451.888,482.009Zm.125,7.226c13.455,1.149,20.172,11.3,21.068,24.1l-41.53-3.542C432.6,498.34,439.334,488.153,452.013,489.236Z" fill="#1a1311"/>
          <path id="パス_14" data-name="パス 14" d="M499.842,535.959l-8.406-.715c.207,12.3,9.438,18.818,19.076,21.137l.008-7.6C504.79,546.877,500.3,543.024,499.842,535.959Z" fill="#1a1311"/>
          <path id="パス_15" data-name="パス 15" d="M502.069,504.134c.006-5.5,3.737-8.225,8.5-9.12l0-7.375c-8.982.893-16.9,5.412-16.912,16.3,0,10.734,8,15.041,16.887,18.214l0-8.471C505.206,511.455,502.067,508.99,502.069,504.134Z" fill="#1a1311"/>
          <path id="パス_16" data-name="パス 16" d="M150.6,557.733c8.018.685,15.264,4.062,16.033,12.393l8.409.717c-1.022-14-11.371-19.209-23.661-20.256a37.854,37.854,0,0,0-6.912.034L144.46,558A23.022,23.022,0,0,1,150.6,557.733Z" fill="#1a1311"/>
          <path id="パス_17" data-name="パス 17" d="M166.1,584.773c-8.789-3.893-16.32-5.883-21.654-8.11l-.007,8.475c1.215.432,2.446.846,3.674,1.251,10.35,3.248,20.57,5.691,20.561,15.135-.007,9.187-8.681,12.381-16.963,11.672a31.8,31.8,0,0,1-7.3-1.433l-.006,7.6a36.158,36.158,0,0,0,5.356.888c13.716,1.171,27.309-4.366,27.318-19.19A17.769,17.769,0,0,0,166.1,584.773Z" fill="#1a1311"/>
          <path id="パス_18" data-name="パス 18" d="M231.048,590.315c-17.591-7.8-30.14-7.951-30.132-17.661.008-7.737,7.381-10,14.631-9.379,8.017.685,15.264,4.057,16.033,12.392l8.409.716c-1.023-14-11.37-19.209-23.663-20.259-11.384-.967-23.809,2.694-23.819,16.34-.011,12.2,10.334,16.1,20.554,19.466,10.351,3.244,20.571,5.689,20.563,15.132-.008,9.185-8.681,12.381-16.963,11.675-8.8-.748-17.335-4.364-17.976-14.258l-8.406-.718c.247,14.586,13.181,21.07,24.435,22.032,13.716,1.166,27.3-4.366,27.318-19.193A17.762,17.762,0,0,0,231.048,590.315Z" fill="#1a1311"/>
          <path id="パス_19" data-name="パス 19" d="M307.391,585.673c.27-15.065-8.652-22.518-23.012-23.742-12.421-1.06-22.389,3.206-24.338,16.555l8.281.706c1.042-8.834,7.772-10.752,15.92-10.056,9.187.785,14.62,4.657,15.387,15.483l0,6.035c-9.447-.28-20.7-2.551-29.375.512-7.764,2.618-13.073,8.986-13.08,17.906-.01,12.862,9.557,21.156,21.589,22.18,8.8.753,17.471-3.757,20.321-9.023l.388-.888.262.023.246,9.729,8.025.686c-.257-4.483-.769-9.774-.635-14.879Zm-27.2,38.482c-7.894-.673-14.616-5.441-14.609-14.364.012-16.531,23.041-12.467,34.042-11.924C300.384,611.712,297.135,625.6,280.187,624.155Z" fill="#1a1311"/>
          <path id="パス_20" data-name="パス 20" d="M381.021,572.141,373,571.459l-.4,9.676-.257.5c-5.171-8.051-11.892-13.218-21.341-14.025-19.794-1.688-27.7,14.17-27.714,32.015-.013,18.1,8.383,33.909,27.918,35.574,8.412.721,17.341-3.11,21.1-10.529l.257.019-.011,12.331c-.267,11-9.585,17.418-19.679,16.558-8.281-.706-17.462-4.111-18.36-12.064l-8.412-.717c-.014,13.643,13.956,18.9,25.73,19.908,6.079.521,9.574.3,14.752-1.754,14.365-5.6,13.731-19.433,13.741-32.554l.035-39.49C380.367,581.8,380.762,576.582,381.021,572.141Zm-29.028,55.909c-14.231-1.21-20.3-16.295-20.287-28.362s5.972-26,20.073-24.792c13.974,1.19,20.818,15.421,20.808,28.016C372.576,615.769,366.872,629.321,351.993,628.051Z" fill="#1a1311"/>
          <path id="パス_21" data-name="パス 21" d="M425.218,636.528c-15.917-1.356-22.241-13.71-22.489-27.767l50.2,4.283c.019-20.6-7.864-37.409-29.6-39.261-19.277-1.646-29,14.584-29.01,32.427-.017,17.974,9.029,35.67,28.433,37.326,15.656,1.335,25.366-5.053,29.391-20.455l-8.152-.694C442.044,631.271,434.4,637.311,425.218,636.528Zm-1.766-55.519c13.458,1.147,20.177,11.3,21.073,24.1l-41.534-3.542C404.04,590.111,410.775,579.928,423.452,581.009Z" fill="#1a1311"/>
        </g>
      </g>
    </g>
  </g>
</svg>
