<svg xmlns="http://www.w3.org/2000/svg" xmlns:xlink="http://www.w3.org/1999/xlink" width="67" height="47" viewBox="0 0 67 47">
  <defs>
    <clipPath id="clip-path">
      <rect id="crop" width="67" height="47" transform="translate(0 94)" fill="none"/>
    </clipPath>
  </defs>
  <g id="ベクトルスマートオブジェクト" transform="translate(0 -94)" clip-path="url(#clip-path)">
    <path id="パス_1" data-name="パス 1" d="M112.23,54.339a8.4,8.4,0,0,0-5.924-5.936C101.081,47,80.13,47,80.13,47s-20.951,0-26.176,1.4a8.4,8.4,0,0,0-5.924,5.936c-1.4,5.236-1.4,16.161-1.4,16.161s0,10.925,1.4,16.161A8.4,8.4,0,0,0,53.954,92.6C59.179,94,80.13,94,80.13,94s20.951,0,26.176-1.4a8.4,8.4,0,0,0,5.924-5.936c1.4-5.236,1.4-16.161,1.4-16.161S113.629,59.575,112.23,54.339ZM73.43,80.572V60.428L90.836,70.5Z" transform="translate(-47 47)" fill="#fff"/>
  </g>
</svg>
